<?xml version="1.0" encoding="iso-8859-1"?>
<!-- Generator: Adobe Illustrator 18.0.0, SVG Export Plug-In . SVG Version: 6.00 Build 0)  -->
<!DOCTYPE svg PUBLIC "-//W3C//DTD SVG 1.1//EN" "http://www.w3.org/Graphics/SVG/1.1/DTD/svg11.dtd">
<svg version="1.1" id="Capa_1" xmlns="http://www.w3.org/2000/svg" xmlns:xlink="http://www.w3.org/1999/xlink" x="0px" y="0px"
	 viewBox="0 0 201.416 201.416" style="enable-background:new 0 0 201.416 201.416;" xml:space="preserve">
<g>
	<path d="M172.043,0H29.382C13.183,0,0.003,13.189,0.003,29.4v142.631c0,16.203,13.18,29.385,29.379,29.385h142.661
		c16.194,0,29.37-13.182,29.37-29.385V29.4C201.413,13.189,188.237,0,172.043,0z M29.382,15h142.661c7.924,0,14.37,6.46,14.37,14.4
		v40.506h-41.258c-9.78-14.068-26.051-23.302-44.444-23.302c-18.394,0-34.663,9.234-44.443,23.302H15.003V29.4
		C15.003,21.46,21.453,15,29.382,15z M100.711,61.604c21.563,0,39.104,17.542,39.104,39.104s-17.542,39.104-39.104,39.104
		c-21.562,0-39.104-17.542-39.104-39.104S79.149,61.604,100.711,61.604z M172.043,186.416H29.382
		c-7.929,0-14.379-6.453-14.379-14.385V84.906h33.965c-1.531,5.002-2.36,10.306-2.36,15.802c0,29.833,24.271,54.104,54.104,54.104
		s54.104-24.271,54.104-54.104c0-5.496-0.829-10.8-2.359-15.802h33.957v87.125C186.413,179.963,179.967,186.416,172.043,186.416z"/>
	<path d="M151.565,57.348h18.908c4.143,0,7.5-3.358,7.5-7.5s-3.357-7.5-7.5-7.5h-11.408V30.939c0-4.142-3.357-7.5-7.5-7.5
		s-7.5,3.358-7.5,7.5v18.909C144.065,53.99,147.423,57.348,151.565,57.348z"/>
</g>
<g>
</g>
<g>
</g>
<g>
</g>
<g>
</g>
<g>
</g>
<g>
</g>
<g>
</g>
<g>
</g>
<g>
</g>
<g>
</g>
<g>
</g>
<g>
</g>
<g>
</g>
<g>
</g>
<g>
</g>
</svg>
