<?xml version="1.0" encoding="UTF-8"?><!DOCTYPE svg PUBLIC "-//W3C//DTD SVG 1.1//EN" "http://www.w3.org/Graphics/SVG/1.1/DTD/svg11.dtd"><svg xmlns="http://www.w3.org/2000/svg"><symbol id="icon-facebook" viewBox="0 0 502.642 502.642"><path d="M379.247 179.534h-92.043v-44.867S282.05 92 311.88 92h60.636V0H269.28s-86.392-.367-86.392 86.39c0 18.638-.086 52.57-.216 93.144h-59.277v74.074h59.125c-.345 117.776-.755 249.035-.755 249.035h105.438V253.608h69.587l22.457-74.074z" fill="#010002"/></symbol><symbol id="icon-instagram" viewBox="0 0 201.416 201.416"><path d="M172.043 0H29.383C13.182 0 .002 13.19.002 29.4v142.63c0 16.204 13.18 29.386 29.38 29.386h142.66c16.194 0 29.37-13.182 29.37-29.385V29.4c0-16.21-13.176-29.4-29.37-29.4zM29.383 15h142.66c7.924 0 14.37 6.46 14.37 14.4v40.506h-41.258c-9.78-14.068-26.05-23.302-44.444-23.302-18.393 0-34.662 9.234-44.442 23.302H15.003V29.4c0-7.94 6.45-14.4 14.38-14.4zm71.328 46.604c21.564 0 39.105 17.542 39.105 39.104s-17.542 39.104-39.104 39.104c-21.56 0-39.103-17.542-39.103-39.104S79.15 61.604 100.71 61.604zm71.333 124.812H29.383c-7.93 0-14.38-6.453-14.38-14.385V84.907h33.965a53.9 53.9 0 0 0-2.36 15.802c0 29.833 24.27 54.104 54.104 54.104s54.104-24.27 54.104-54.104c0-5.496-.83-10.8-2.36-15.802h33.958v87.125c0 7.933-6.447 14.386-14.37 14.386z"/><path d="M151.565 57.348h18.908c4.143 0 7.5-3.358 7.5-7.5s-3.357-7.5-7.5-7.5h-11.408v-11.41a7.5 7.5 0 0 0-15 0v18.91a7.5 7.5 0 0 0 7.5 7.5z"/></symbol><symbol id="icon-pinterest" viewBox="0 0 486.392 486.392"><path d="M430.15 135.248C416.864 39.125 321.075-9.818 218.872 1.642 138.07 10.702 57.513 76.03 54.168 169.447c-2.037 57.03 14.136 99.8 68.4 111.84 23.498-41.586-7.57-50.676-12.434-80.802C90.222 77.367 252.16-6.718 336.974 79.313c58.733 59.583 20.034 242.77-74.57 223.71-90.62-18.18 44.384-164.005-27.936-192.61-58.793-23.287-90.013 71.134-62.137 118.07-16.354 80.712-51.556 156.71-37.3 257.91 46.208-33.56 61.803-97.734 74.57-164.704 23.226 14.135 35.66 28.757 65.27 31.037 109.194 8.48 170.266-109.014 155.28-217.48z" fill="#010002"/></symbol><symbol id="images"/></svg>